PathFileType	4	(X/Y/Z)	/tmp/tmphz8i29mk/org-f5e79b5e/32898/baseball-pitching/20220928/session_662820_hawkeye/trc/001_10A17836-7AA3-4221-8461-2F40718F5DA8.trc
DataRate	CameraRate	NumFrames	NumMarkers	Units	OrigDataRate	OrigDataStartFrame	OrigNumFrames
303.03030303030306	303.03030303030306	14	13	mm	303.03030303030306	114	908
Frame#	Time	LSJC			RSJC			LEJC			REJC			LWJC			RWJC			LHJC			RHJC			LKJC			RKJC			LAJC			RAJC			NECK		
		X1	Y1	Z1	X2	Y2	Z2	X3	Y3	Z3	X4	Y4	Z4	X5	Y5	Z5	X6	Y6	Z6	X7	Y7	Z7	X8	Y8	Z8	X9	Y9	Z9	X10	Y10	Z10	X11	Y11	Z11	X12	Y12	Z12	X13	Y13	Z13

114	0.3729	-207.57781323080619	256.09483168469956	1839.347755341529	-214.66939480267897	-161.64464657952811	1818.4874687442843	-182.06245381011712	299.8747056957565	1545.0801635707983	-232.910637677519	-213.32125652429247	1521.0018356868263	-77.8520271523118	165.80712927826033	1282.3386291059885	-92.4646327443753	-98.64549689146651	1272.382498091247	-291.0430109002521	149.34260656794277	1310.9896386284397	-283.7268800707447	-87.5933173573934	1315.0243677391352	-324.9860121280247	102.8280716569184	871.809421656319	-210.18191606675626	-77.3051059411598	878.9773312945795	-384.2360415975961	78.27887266713891	423.4281642435868	-169.05548028249027	-64.30319522756776	428.85661031471153	-170.1683327853708	47.488678352377164	1837.1154435148328
115	0.3762	-206.91264395465637	255.91840680006155	1839.6477641162767	-214.94073662822402	-161.8052261015185	1818.7226470004564	-182.43734957612318	300.4675345075902	1545.3424929224368	-233.14712143155265	-214.11159505573957	1521.301234165548	-76.89737550422441	165.471254697083	1284.089125781238	-89.94718477849912	-98.70216032982967	1275.3077424299477	-291.8818774510967	148.6070598558185	1311.2088863006732	-282.35624196241105	-88.25087878656365	1315.188703262857	-325.3582927856365	102.49091358747752	871.9542099285163	-208.18416494774948	-77.69168923410778	879.2604834711411	-383.8360021657312	78.32761632647357	423.8185449742178	-168.62359462915865	-64.45241077268064	429.4710868289329	-170.1055302546961	47.26079988635277	1837.3448825979372
116	0.3795	-206.18429105651504	255.7228694520862	1839.9559006249165	-215.21551562548603	-161.9832148265919	1818.9522813109209	-182.82005597493355	301.02456111944207	1545.6143189062452	-233.49601967031944	-214.92157652183684	1521.5971287469622	-76.01910289459522	165.01446023820478	1285.8960293110758	-87.53736944306183	-98.88615673847978	1278.2488224970434	-292.9278993169818	147.80650418688842	1311.4476814339396	-280.91976938603443	-88.93906196637874	1315.3711565181354	-325.7673515775299	102.12555297064304	872.1015235801264	-206.099811556474	-78.0508104070476	879.5687910413162	-383.3607813328091	78.38258565859462	424.1886947982507	-168.1654185716205	-64.63843563521519	430.1018573227947	-170.02626892244987	47.01249254682934	1837.5631030081986
117	0.3828	-205.41019234903268	255.51238032085536	1840.2703556816875	-215.47951908199818	-162.1739734997485	1819.172399487244	-183.2274442886028	301.54884481250286	1545.8947358465034	-233.94801218673996	-215.73571937368965	1521.8840160139703	-75.22280104441313	164.4447686215186	1287.7599106593602	-85.24468146849831	-99.17524504984792	1281.1880318580947	-294.1890498689469	146.9406748642292	1311.7077850086532	-279.424111259003	-89.64940926564633	1315.572332464293	-326.2297536706165	101.72880170906603	872.2548891198419	-203.9503659931336	-78.37413220886877	879.9002567598892	-382.8353681986999	78.43732555975986	424.5435139403351	-167.69574096430568	-64.87328808411712	430.74596422035626	-169.92998087546906	46.75097258690753	1837.7687003581257
118	0.3861	-204.60950396247063	255.29354517575695	1840.5893546289496	-215.7187775340464	-162.3705512275067	1819.3786453264106	-183.67481667781212	302.0462497046702	1546.1832075496209	-234.48916784877798	-216.53429773167423	1522.155465524757	-74.50853526413621	163.7745096838868	1289.6828043495407	-83.07031288130526	-99.53946574185163	1284.1096173480355	-295.67168458909964	146.01040369853197	1311.9907054060068	-277.8739400564156	-90.37128064363385	1315.792759532654	-326.76216309620315	101.2985889218429	872.4178544621632	-201.75676664169654	-78.65280483948911	880.2524125614989	-382.2866641410973	78.48588958606845	424.8888526068231	-167.2293519857646	-65.1687858098989	431.4005650197429	-169.81681324579745	46.48590774364371	1837.9607767200064
119	0.3894	-203.80309403405343	255.07536995219957	1840.911273280165	-215.91959248776564	-162.56375352178645	1819.5661744580152	-184.17594970338646	302.5254298460232	1546.4796154164917	-235.10092893136454	-217.29340781549263	1522.4039867057984	-73.87097430035246	163.02036547800472	1291.668260773614	-81.00727714422554	-99.94119799879427	1286.9999893034824	-297.3805366113441	145.01757751622992	1312.2976999910686	-276.2719548896636	-91.09183460468597	1316.0328928885504	-327.3812220734263	100.83375324793911	872.593939563064	-199.53922631520985	-78.87768182316944	880.6223227921879	-381.74324719273574	78.52245351689008	425.23140691939733	-166.78072587742267	-65.53678583885983	432.0629929341304	-169.68763896743687	46.229342909115374	1838.1389264397128
120	0.3927	-203.01356431368689	254.86916250132683	1841.2347882831407	-216.06854790465928	-162.74223086375997	1819.7295282105597	-184.74316917922027	302.9977959681712	1546.7843405183744	-235.76012140285533	-217.98500510246208	1522.6208490407976	-73.29955261559357	162.2034336188582	1293.7214109773558	-79.04059617022902	-100.33517917197452	1289.847865618635	-299.31874962315277	143.96508509745144	1312.6297813391384	-274.6189128437892	-91.79599488600081	1316.2931200472772	-328.10345528039306	100.33379918687392	872.7865886984318	-197.3170914331666	-79.03953579889071	881.0065970712502	-381.2351464510375	78.5408649845337	425.578611695505	-166.36369443735134	-65.98948509702002	432.7308325975133	-169.54407277495105	45.99559628582806	1838.303226750205
121	0.396	-202.26529033360364	254.68838059137747	1841.5590583521569	-216.15252702425147	-162.89258523974587	1819.8624976800957	-185.38741950557971	303.47747849403925	1547.098378510786	-236.4389628200556	-218.57691711857038	1522.7958737786298	-72.77862400743332	161.3493544482113	1295.8490264815507	-77.14748901316707	-100.66845313330113	1292.6443827053608	-301.4878488758789	142.85677986604793	1312.9877168525684	-272.91369969431776	-92.4664041908656	1316.5737605850477	-328.9451484086231	99.79863603568201	872.999118723249	-195.1087030126868	-79.1292992393698	881.4014090373059	-380.79360056217894	78.53414021809952	425.9385338443581	-165.99108378166846	-66.539741311759	433.4020138742594	-169.38849817352462	45.8011237153216	1838.454241259433
122	0.3993	-201.58445554316418	254.54841504452173	1841.8839343559318	-216.15872780263695	-162.9994998050993	1819.9579775073385	-186.11833477511317	303.9812755155991	1547.4234914533417	-237.10511331086735	-219.03282561332688	1522.9172057761002	-72.28764646112879	160.48846467243789	1298.059600034828	-75.29762011029028	-100.88027729646156	1295.3831841523058	-303.88772822790185	141.69743348244384	1313.372029481908	-271.15341837837946	-93.0833760139342	1316.875066863754	-329.92221189419286	99.22828777109557	873.2346670736589	-192.93122713626332	-79.13831771947446	881.8025333701465	-380.45076398687974	78.4939094610408	426.31976378550456	-165.67429569541687	-67.20142656854293	434.0749336678712	-169.22409577819528	45.66434371740063	1838.5930313864296
123	0.4026	-200.94422669080947	254.43813300800974	1842.0191519910063	-216.26758428991377	-163.1521805019359	1820.1069499504256	-186.89389358684016	304.23220373544206	1547.5102588118402	-237.80822819143094	-219.38414912179866	1523.0388753605791	-71.61749361434467	159.5987574914962	1300.290448158852	-73.43371193344048	-101.25326395256906	1298.291247147407	-305.93549613131466	140.4966689808916	1313.725467892924	-269.3747595408836	-93.72103470510663	1317.159410360206	-330.641500328095	98.77505292031702	873.4347770133485	-190.80443193240095	-79.32159958341464	882.1640061559398	-380.2300970328028	78.38883887998752	426.7380283058674	-165.3942139550177	-68.13020313039215	434.73012905321184	-169.06032335720343	45.49171996047648	1838.7669449029893
124	0.4059	-200.28482572876177	254.30042014179375	1842.015253427775	-216.47330746658596	-163.33712715389473	1820.1895418296529	-187.4627886870889	304.43155875728587	1547.4723204965633	-238.54224824680261	-219.73508165250738	1523.0836319548011	-70.65796452549111	158.68577339932233	1302.501776816332	-71.51276669252992	-101.70886084138915	1301.258366646172	-307.8843236747189	139.1952685976078	1313.9962241021212	-267.65398656387254	-94.42121979502774	1317.353025156229	-331.3244915957866	98.3052804780262	873.5526651913066	-188.6792260190604	-79.52574231513165	882.446265600621	-380.0997284498041	78.25378948165077	427.1234204970773	-165.13166376063714	-68.97612971291126	435.3520591561957	-168.9200636268377	45.27431147287579	1838.8652686558212
125	0.4092	-199.5813564842395	254.13089362975248	1841.9223736440783	-216.74174221761695	-163.535653982337	1820.1809752108059	-187.76137961957275	304.6657661284525	1547.3785086159726	-239.2744254522474	-220.08841729368123	1523.0375467730164	-69.41061505814577	157.75950686833534	1304.7127756667062	-69.51805934333271	-102.1559966584882	1304.2607272547402	-309.8045567566706	137.80028906846815	1314.1829386942047	-265.9921609960737	-95.17229539662274	1317.4533632370944	-332.03192601505043	97.78951939922212	873.5896966275208	-186.53548069245727	-79.70375891164913	882.6537562992912	-380.0343509151535	78.1115516795676	427.4645117267928	-164.87892590956665	-69.67185988192166	435.94544039196415	-168.79688532327728	45.02658273915301	1838.8719121106062
126	0.4125	-198.82283810863328	253.94049862089227	1841.7696005958048	-217.0492462485527	-163.73834057713944	1820.098394210929	-187.79581973544737	304.94842050588073	1547.255283503247	-239.97340147439246	-220.42088367840287	1522.9146643295169	-67.90165809456205	156.8251195984018	1306.954633652924	-67.44314675565977	-102.53927957137698	1307.322234533548	-311.6545099368455	136.34057754354345	1314.2968533609048	-264.3724363045968	-95.9540871980121	1317.4789037002186	-332.7353718555849	97.24713301129712	873.5585439601359	-184.36787920250399	-79.87062541367158	882.8019396183984	-380.01644315925745	77.97397495303491	427.7714585359541	-164.629967159348	-70.25955298179039	436.5203759224437	-168.67774783194585	44.759964563128	1838.8074463356772
127	0.4158	-198.00187907321143	253.73816615632126	1841.5843663524631	-217.37473522104813	-163.9378870189072	1819.9586860253528	-187.57820041931603	305.28890984649144	1547.1277203319373	-240.61208736702142	-220.71602757538264	1522.7297833805876	-66.16214207650042	155.8840006447877	1309.256639279742	-65.2872495432732	-102.81374249215705	1310.4629282764893	-313.39905094444117	134.8433760455999	1314.349360511336	-262.7837099121189	-96.74925186706717	1317.4477110906635	-333.4112709453728	96.6950785204374	873.4718251433924	-182.17375822911643	-80.04153169449431	882.9063472453964	-380.03131398325024	77.84971910539979	428.05389246186337	-164.37786903689866	-70.77498980417255	437.0872993090558	-168.55221723914488	44.48396308860598	1838.6912754961782
